<svg id="Ebene_1" data-name="Ebene 1" xmlns="http://www.w3.org/2000/svg" viewBox="0 0 322.5 457.75"><defs><style>.cls-1{fill:#a7cff0;}.cls-2{fill:#284775;}.cls-3{fill:#4682b4;}.cls-4{fill:none;}</style></defs><path class="cls-1" d="M297,439.17V547.75H197.25V369.89A177.67,177.67,0,0,0,297,439.17Z" transform="translate(-197.25 -90)"/><path class="cls-2" d="M263.5,264A81.35,81.35,0,0,0,297,329.86V439.17a177.67,177.67,0,0,1-99.75-69.28V165.11A177.67,177.67,0,0,1,297,95.83V198.14A81.35,81.35,0,0,0,263.5,264Z" transform="translate(-197.25 -90)"/><path class="cls-3" d="M519.75,267.5A177.62,177.62,0,0,1,297,439.17V329.86a81.5,81.5,0,1,0,0-131.72V95.83A177.62,177.62,0,0,1,519.75,267.5Z" transform="translate(-197.25 -90)"/><path class="cls-4" d="M426.5,264A81.49,81.49,0,0,1,297,329.86V198.14A81.49,81.49,0,0,1,426.5,264Z" transform="translate(-197.25 -90)"/><path class="cls-1" d="M297,198.14V329.86a81.49,81.49,0,0,1,0-131.72Z" transform="translate(-197.25 -90)"/><path class="cls-4" d="M426.5,264A81.49,81.49,0,0,1,297,329.86V198.14A81.49,81.49,0,0,1,426.5,264Z" transform="translate(-197.25 -90)"/></svg>