<?xml version="1.0" encoding="iso-8859-1"?>
<!-- Generator: Adobe Illustrator 19.0.0, SVG Export Plug-In . SVG Version: 6.00 Build 0)  -->
<svg version="1.1" id="Layer_1" xmlns="http://www.w3.org/2000/svg" xmlns:xlink="http://www.w3.org/1999/xlink" x="0px" y="0px"
	 viewBox="0 0 512 512" style="enable-background:new 0 0 512 512;" xml:space="preserve">
<path style="fill:#F7B239;" d="M312.786,502.747H199.209c17.447-64.334,20.532-128.668,9.266-193.001
	c-2.418-13.856-5.515-27.7-9.266-41.557v-0.012c1.777-1.604,3.43-3.331,4.948-5.182c6.379,8.563,16.583,14.115,28.095,14.115
	c9.168,0,17.509-3.529,23.752-9.303c6.231,5.774,14.584,9.303,23.752,9.303c11.5,0,21.704-5.552,28.083-14.115
	c1.518,1.851,3.171,3.591,4.948,5.195c-3.751,13.844-6.848,27.7-9.254,41.544C292.255,374.067,295.339,438.401,312.786,502.747z"/>
<path style="fill:#E09B2D;" d="M239.342,276.383c-2.29,0.471-4.659,0.727-7.089,0.727c-11.512,0-21.716-5.552-28.095-14.115
	c-1.518,1.851-3.171,3.578-4.948,5.182v0.012c21.198,78.19,21.198,156.368,0,234.558h39.499
	C244.936,427.289,245.135,351.842,239.342,276.383z"/>
<path style="fill:#E6E6E6;" d="M434.408,94.399c25.405,10.315,43.333,35.215,43.333,64.334c0,38.324-31.069,69.393-69.393,69.393
	c-5.195,0-10.229-0.58-15.09-1.666c0.234,1.937,0.37,3.887,0.37,5.873c0,26.713-21.667,48.38-48.38,48.38
	c-12.499,0-23.875-4.75-32.463-12.524c-1.777-1.604-3.43-3.344-4.948-5.195c-6.379,8.563-16.583,14.115-28.083,14.115
	c-9.168,0-17.521-3.529-23.752-9.303c-6.243,5.774-14.584,9.303-23.752,9.303c-11.512,0-21.716-5.552-28.095-14.115
	c-1.518,1.851-3.171,3.578-4.948,5.182v0.012c-8.575,7.773-19.964,12.524-32.463,12.524c-26.713,0-48.368-21.667-48.368-48.38
	c0-1.987,0.136-3.936,0.37-5.873c-4.861,1.086-9.908,1.666-15.09,1.666c-38.336,0-69.405-31.069-69.405-69.393
	c0-29.119,17.928-54.019,43.333-64.334c-1.493-4.257-2.32-8.847-2.32-13.622c0-22.654,18.36-41.014,41.001-41.014
	c8.452,0,16.312,2.554,22.839,6.934C154.605,24.094,180.615,9.25,210.104,9.25c16.879,0,32.611,4.886,45.9,13.289
	c13.276-8.403,29.021-13.289,45.9-13.289c29.477,0,55.487,14.843,70.984,37.448c6.527-4.38,14.387-6.934,22.839-6.934
	c22.654,0,41.014,18.36,41.014,41.014C436.74,85.553,435.914,90.143,434.408,94.399z"/>
<path style="fill:#E09B2D;" d="M312.786,268.189c-3.751,13.844-6.848,27.7-9.254,41.544c-6.243,5.787-14.597,9.328-23.777,9.328
	c-9.168,0-17.521-3.529-23.752-9.303c-6.243,5.774-14.584,9.303-23.752,9.303c-9.18,0-17.533-3.529-23.777-9.316
	c-2.418-13.856-5.515-27.7-9.266-41.557v-0.012c1.777-1.604,3.43-3.331,4.948-5.182c6.379,8.563,16.583,14.115,28.095,14.115
	c9.168,0,17.509-3.529,23.752-9.303c6.231,5.774,14.584,9.303,23.752,9.303c11.5,0,21.704-5.552,28.083-14.115
	C309.356,264.846,311.009,266.585,312.786,268.189z"/>
<path style="fill:#CCCCCC;" d="M177.2,232.333c0-1.987,0.136-3.936,0.37-5.873c-4.861,1.086-9.908,1.666-15.09,1.666
	c-38.336,0-69.405-31.069-69.405-69.393c0-29.119,17.928-54.019,43.333-64.334c-1.493-4.257-2.32-8.847-2.32-13.622
	c0-22.654,18.36-41.014,41.001-41.014c8.452,0,16.312,2.554,22.839,6.934c10.062-14.677,24.559-26.075,41.559-32.269
	c-9.169-3.343-19.061-5.179-29.385-5.179c-29.489,0-55.499,14.843-70.997,37.448c-6.527-4.38-14.387-6.934-22.839-6.934
	c-22.641,0-41.001,18.36-41.001,41.014c0,4.775,0.827,9.365,2.32,13.622c-25.405,10.315-43.333,35.215-43.333,64.334
	c0,38.324,31.069,69.393,69.405,69.393c5.182,0,10.229-0.58,15.09-1.666c-0.234,1.937-0.37,3.887-0.37,5.873
	c0,26.713,21.654,48.38,48.368,48.38c11.07,0,21.266-3.731,29.41-9.984C184.634,261.884,177.2,247.979,177.2,232.333z"/>
<g>
	<path style="fill:#333333;" d="M402.676,237.177c1.89,0.138,3.782,0.207,5.67,0.207c43.372,0,78.656-35.285,78.656-78.656
		c0-29.444-16.138-55.9-41.732-69.458c0.479-2.797,0.721-5.636,0.721-8.498c0-27.716-22.549-50.265-50.264-50.265
		c-7.039,0-13.911,1.453-20.251,4.249C357.447,12.853,330.518,0,301.9,0c-16.117,0-31.868,4.062-45.901,11.793
		C241.967,4.062,226.216,0,210.1,0c-28.618,0-55.547,12.853-73.574,34.756c-6.341-2.796-13.212-4.249-20.251-4.249
		c-27.716,0-50.264,22.549-50.264,50.265c0,2.861,0.242,5.7,0.721,8.498c-25.595,13.558-41.733,40.016-41.733,69.459
		c0,43.372,35.285,78.656,78.656,78.656c1.887,0,3.779-0.069,5.67-0.207c2.465,29.519,27.278,52.785,57.424,52.785
		c9.48,0,18.636-2.305,26.787-6.588c16.787,69.79,16.304,140.376-1.463,210.117h-84.345c-5.111,0-9.254,4.143-9.254,9.254
		c0,5.111,4.143,9.254,9.254,9.254h296.539c5.111,0,9.254-4.143,9.254-9.254c0-5.111-4.143-9.254-9.254-9.254h-84.345
		c-17.768-69.744-18.249-140.33-1.462-210.121c8.152,4.285,17.31,6.59,26.793,6.59C375.397,289.961,400.211,266.696,402.676,237.177
		z M211.135,493.492c17.196-70.396,17.528-141.58,0.98-212.005c6.171,3.155,13.069,4.876,20.133,4.876
		c8.495,0,16.7-2.416,23.752-6.912c7.052,4.495,15.258,6.912,23.752,6.912c7.061,0,13.957-1.72,20.126-4.873
		c-16.547,70.424-16.214,141.608,0.981,212.002H211.135z M345.252,271.453c-11.759,0-22.787-5.222-30.257-14.328
		c-1.759-2.146-4.386-3.384-7.154-3.384c-0.073,0-0.144,0-0.217,0.002c-2.847,0.067-5.503,1.44-7.205,3.723
		c-4.918,6.602-12.452,10.388-20.667,10.388c-6.495,0-12.699-2.429-17.472-6.841c-3.546-3.278-9.017-3.277-12.563,0
		c-4.771,4.411-10.975,6.841-17.47,6.841c-6.208,0-12.024-2.164-16.619-6.069c3.533-7.23,7.34-19.501,3.139-34.308
		c-1.395-4.917-6.514-7.77-11.429-6.377c-4.917,1.395-7.771,6.512-6.377,11.429c3.897,13.732-3.359,23.791-4.016,24.664
		c-7.469,9.061-18.47,14.26-30.198,14.26c-21.569,0-39.117-17.548-39.117-39.117c0-1.536,0.099-3.092,0.3-4.759
		c0.36-2.981-0.746-5.951-2.971-7.968c-2.225-2.016-5.29-2.828-8.221-2.178c-4.32,0.959-8.722,1.445-13.084,1.445
		c-33.166,0-60.148-26.982-60.148-60.148c0-24.611,14.745-46.493,37.565-55.749c4.581-1.858,6.892-6.99,5.249-11.651
		c-1.197-3.394-1.803-6.947-1.803-10.556c0-17.511,14.246-31.757,31.756-31.757c6.312,0,12.407,1.848,17.628,5.343
		c0.967,0.707,12.109,9.116,12.109,20.707c0,5.111,4.143,9.254,9.254,9.254s9.254-4.143,9.254-9.254
		c0-13.25-7.085-23.43-12.864-29.534c14.52-17.046,35.827-27.022,58.447-27.022c14.531,0,28.694,4.098,40.954,11.85
		c3.02,1.911,6.87,1.91,9.892,0c12.261-7.752,26.422-11.85,40.953-11.85c25.324,0,49.01,12.497,63.359,33.428
		c2.871,4.187,8.578,5.283,12.793,2.449c5.232-3.514,11.343-5.371,17.675-5.371c17.51,0,31.756,14.246,31.756,31.757
		c0,3.609-0.607,7.16-1.803,10.556c-0.005,0.012-0.007,0.025-0.011,0.037c-0.006,0.016-0.014,0.031-0.019,0.048
		c-0.396,1.16-4.206,11.265-15.737,9.103c-5.026-0.939-9.859,2.367-10.801,7.39c-0.941,5.023,2.367,9.86,7.39,10.801
		c2.373,0.444,4.626,0.649,6.762,0.649c11.798,0,19.996-6.256,24.948-12.836c18.623,10.611,30.284,30.327,30.284,52.207
		c0,33.166-26.982,60.148-60.148,60.148c-4.362,0-8.764-0.486-13.084-1.445c-2.93-0.649-5.995,0.162-8.221,2.178
		c-2.225,2.017-3.333,4.987-2.971,7.968c0.202,1.667,0.3,3.223,0.3,4.759C384.369,253.906,366.821,271.453,345.252,271.453z"/>
	<path style="fill:#333333;" d="M169.36,454.327c0.78,0.204,1.563,0.3,2.334,0.3c4.112,0,7.867-2.763,8.949-6.929
		c10.103-38.878,10.699-78.337,1.768-117.281c-1.143-4.982-6.109-8.097-11.088-6.952c-4.982,1.143-8.094,6.106-6.952,11.087
		c8.259,36.017,7.707,72.518-1.641,108.49C161.445,447.99,164.413,453.042,169.36,454.327z"/>
	<path style="fill:#333333;" d="M340.67,323.465c-4.982-1.14-9.946,1.969-11.088,6.952c-8.931,38.944-8.336,78.404,1.768,117.281
		c1.082,4.167,4.837,6.929,8.949,6.929c0.771,0,1.553-0.098,2.334-0.3c4.947-1.286,7.915-6.337,6.63-11.284
		c-9.348-35.972-9.901-72.474-1.641-108.49C348.764,329.572,345.653,324.608,340.67,323.465z"/>
	<path style="fill:#333333;" d="M333.676,86.079c-8.931,0-17.608,2.062-25.478,6.014c-7.635-6.293-17.248-9.793-27.319-9.793
		c-23.712,0-43.004,19.291-43.004,43.004c0,5.111,4.143,9.254,9.254,9.254c5.111,0,9.254-4.143,9.254-9.254
		c0-13.507,10.989-24.496,24.496-24.496c7.267,0,14.118,3.204,18.793,8.79c3.059,3.657,8.396,4.389,12.329,1.694
		c6.398-4.386,13.893-6.705,21.674-6.705c21.174,0,38.402,17.227,38.402,38.402s-17.227,38.402-38.402,38.402
		c-5.111,0-9.254,4.143-9.254,9.254s4.143,9.254,9.254,9.254c31.38,0,56.91-25.53,56.91-56.91S365.056,86.079,333.676,86.079z"/>
	<path style="fill:#333333;" d="M149.019,159.06c-12.629,12.627-12.629,33.176,0,45.804c1.806,1.806,4.175,2.711,6.543,2.711
		s4.737-0.903,6.543-2.711c3.614-3.614,3.614-9.474,0-13.086c-5.412-5.412-5.412-14.218,0-19.63c5.412-5.412,14.218-5.412,19.63,0
		c3.615,3.614,9.472,3.613,13.088,0c3.614-3.614,3.613-9.474,0-13.088C182.193,146.433,161.646,146.433,149.019,159.06z"/>
</g>
<g>
</g>
<g>
</g>
<g>
</g>
<g>
</g>
<g>
</g>
<g>
</g>
<g>
</g>
<g>
</g>
<g>
</g>
<g>
</g>
<g>
</g>
<g>
</g>
<g>
</g>
<g>
</g>
<g>
</g>
</svg>
