<?xml version="1.0" encoding="iso-8859-1"?>
<!-- Generator: Adobe Illustrator 19.0.0, SVG Export Plug-In . SVG Version: 6.00 Build 0)  -->
<svg xmlns="http://www.w3.org/2000/svg" xmlns:xlink="http://www.w3.org/1999/xlink" version="1.1" id="Layer_1" x="0px" y="0px" viewBox="0 0 512 512" style="enable-background:new 0 0 512 512;" xml:space="preserve">
<path style="fill:#00D8DE;" d="M460.621,319.152c0,35.931-91.597,65.06-204.587,65.06s-204.586-29.128-204.586-65.06  c0-5.936,0-16.957,0-16.957h409.173C460.621,302.195,460.621,312.415,460.621,319.152z"/>
<path style="fill:#00B6BE;" d="M51.448,319.152c0,1.669,0.2,3.323,0.587,4.96h407.998c0.389-1.637,0.587-3.29,0.587-4.96  c0-6.737,0-16.957,0-16.957H51.448C51.448,302.195,51.448,313.216,51.448,319.152z"/>
<path style="fill:#57555C;" d="M170.496,378.265c26.028,3.815,54.999,5.947,85.539,5.947s59.512-2.132,85.539-5.947  c-17.202-17.889-49.057-29.911-85.539-29.911S187.698,360.377,170.496,378.265z"/>
<path style="fill:#00D8DE;" d="M504.163,260.472L7.832,260.112L49.97,202.7c20.469-27.89,53.004-44.353,87.599-44.328l237.005,0.171  c34.595,0.025,67.106,16.537,87.535,44.456L504.163,260.472z"/>
<polygon style="fill:#00B6BE;" points="7.832,260.112 504.163,260.472 485.639,235.156 26.149,235.156 "/>
<path style="fill:#E0E0E3;" d="M370.429,158.457H141.641l19.405-26.479c9.426-12.863,24.418-20.462,40.365-20.462h109.25  c15.946,0,30.939,7.6,40.365,20.462L370.429,158.457z"/>
<polygon style="fill:#D2D1D3;" points="141.641,158.456 370.429,158.456 354.924,137.299 157.145,137.299 "/>
<path style="fill:#FF8800;" d="M297.066,111.515c0-22.661-18.371-41.03-41.03-41.03c-22.66,0-41.03,18.371-41.03,41.03H297.066z"/>
<path style="fill:#E0E0E3;" d="M483.126,302.548H28.944c-11.619,0-21.038-9.419-21.038-21.038v-21.038h496.257v21.038  C504.163,293.128,494.745,302.548,483.126,302.548z"/>
<path style="fill:#D2D1D3;" d="M7.906,281.51c0,11.618,9.419,21.038,21.038,21.038h454.182c11.618,0,21.038-9.419,21.038-21.038  v-0.352H7.906V281.51z"/>
<g>
	<circle style="fill:#FF8800;" cx="101.012" cy="115.483" r="20.052"/>
	<circle style="fill:#FF8800;" cx="411.057" cy="115.483" r="20.052"/>
	<circle style="fill:#FF8800;" cx="145.577" cy="203.318" r="15.502"/>
	<circle style="fill:#FF8800;" cx="219.212" cy="203.318" r="15.502"/>
	<circle style="fill:#FF8800;" cx="292.857" cy="203.318" r="15.502"/>
	<circle style="fill:#FF8800;" cx="366.491" cy="203.318" r="15.502"/>
</g>
<path d="M511.994,260.339c-0.027-1.605-0.558-3.197-1.506-4.495l-36.407-49.754c-2.556-3.493-7.461-4.251-10.952-1.697  c-3.493,2.556-4.253,7.46-1.697,10.952l27.286,37.291H23.04l33.247-45.299c18.904-25.757,49.257-41.129,81.205-41.129  c0.023,0,0.047,0,0.07,0l23.513,0.018c0.002,0,0.004,0,0.006,0c4.326,0,7.834-3.505,7.837-7.831c0.003-4.329-3.504-7.84-7.831-7.843  l-3.935-0.003l10.214-13.938c7.919-10.806,20.646-17.259,34.043-17.259h13.594h82.062h13.594c13.398,0,26.125,6.451,34.043,17.259  l10.32,14.082l-161.751-0.117c-0.003,0-0.004,0-0.006,0c-4.326,0-7.834,3.505-7.837,7.831c-0.003,4.329,3.504,7.84,7.831,7.843  l181.31,0.131c26.893,0.02,52.171,10.506,71.177,29.527c1.531,1.533,3.537,2.298,5.544,2.298c2.004,0,4.009-0.764,5.539-2.293  c3.063-3.059,3.065-8.022,0.005-11.082c-19.16-19.176-43.837-30.844-70.455-33.525l11.325-11.325  c4.048,2.212,8.607,3.392,13.349,3.392c7.451,0,14.455-2.902,19.723-8.169c5.268-5.268,8.17-12.272,8.17-19.724  c0-7.45-2.901-14.455-8.169-19.724c-10.876-10.874-28.571-10.876-39.447,0c-5.268,5.268-8.169,12.273-8.169,19.724  c0,4.776,1.199,9.367,3.442,13.435l-14.315,14.315c-0.692,0.692-1.218,1.483-1.597,2.324l-13.345-18.21  c-10.861-14.82-28.313-23.666-46.687-23.666h-6.394c-3.762-23.232-23.953-41.031-48.231-41.031s-44.469,17.798-48.231,41.031h-6.394  c-18.373,0-35.825,8.847-46.687,23.666l-13.343,18.21c-0.379-0.842-0.906-1.633-1.597-2.325l-14.316-14.316  c2.243-4.07,3.442-8.659,3.442-13.435c0-7.45-2.901-14.455-8.169-19.724c-10.875-10.873-28.571-10.874-39.446,0c0,0,0,0-0.001,0  c-5.268,5.268-8.169,12.273-8.169,19.724c0,7.451,2.902,14.455,8.169,19.724c5.268,5.268,12.273,8.169,19.724,8.169  c4.743,0,9.302-1.18,13.349-3.393l11.189,11.189c-32.436,3.377-62.428,20.363-81.9,46.896l-42.14,57.415  c-1.246,1.697-1.701,3.728-1.446,5.662v20.372c0,15.921,12.953,28.875,28.875,28.875h14.668v8.768  c0,21.38,22.61,39.87,65.383,53.473c39.388,12.525,91.608,19.424,147.04,19.424s107.651-6.898,147.04-19.424  c42.775-13.604,65.384-32.093,65.384-53.473v-8.768h14.667c15.921,0,28.875-12.953,28.875-28.875v-21.038  C512,260.427,511.995,260.384,511.994,260.339z M402.412,106.839c2.382-2.382,5.511-3.574,8.641-3.574s6.258,1.192,8.64,3.574  c2.308,2.307,3.58,5.377,3.58,8.64c0,3.264-1.272,6.333-3.58,8.641c-2.307,2.307-5.376,3.579-8.64,3.579  c-3.263,0-6.333-1.272-8.641-3.58c-2.307-2.307-3.579-5.376-3.579-8.64C398.833,112.215,400.105,109.146,402.412,106.839z   M256.034,78.321c15.605,0,28.729,10.823,32.259,25.358h-64.519C227.305,89.144,240.431,78.321,256.034,78.321z M101.016,127.698  c-3.263,0-6.333-1.272-8.641-3.58c-2.307-2.307-3.579-5.376-3.579-8.64c0-3.263,1.272-6.332,3.579-8.64  c4.766-4.766,12.517-4.764,17.281,0c2.308,2.307,3.58,5.377,3.58,8.64c0,3.264-1.272,6.333-3.58,8.641  C107.348,126.427,104.28,127.698,101.016,127.698z M191.256,373.018c0.009-0.007,0.019-0.014,0.028-0.021  c-0.471-0.051-0.949-0.094-1.418-0.146c17.117-10.491,40.955-16.658,66.168-16.658c25.1,0,48.833,6.116,65.933,16.521  c0.118,0.048,0.237,0.093,0.355,0.141c-21.014,2.313-43.347,3.521-66.288,3.521C233.642,376.375,211.829,375.224,191.256,373.018  C191.266,373.011,211.829,375.224,191.256,373.018z M496.327,281.51c0,7.279-5.922,13.201-13.201,13.201H118.743  c-4.329,0-7.837,3.508-7.837,7.837s3.508,7.837,7.837,7.837h334.043v8.768c0,13.286-20.359,27.692-54.461,38.536  c-15.993,5.086-34.244,9.204-54.041,12.268c-19.84-18.494-52.431-29.438-88.249-29.438s-68.408,10.944-88.248,29.438  c-19.797-3.066-38.048-7.183-54.042-12.268c-34.102-10.844-54.46-25.25-54.46-38.536v-8.768h27.437c4.329,0,7.837-3.508,7.837-7.837  s-3.508-7.837-7.837-7.837h-57.78c-7.28,0-13.201-5.923-13.201-13.201v-13.201h480.585V281.51z"/>
<path d="M255.474,418.57c-0.005,0-0.009,0-0.014,0c-4.322,0-7.829,3.5-7.837,7.823l-0.025,15.11  c-0.007,4.329,3.496,7.843,7.823,7.85c0.005,0,0.009,0,0.014,0c4.322,0,7.83-3.5,7.837-7.823l0.025-15.11  C263.305,422.091,259.803,418.576,255.474,418.57z"/>
<path d="M308.092,404.675c-3.147-2.973-8.107-2.832-11.079,0.316c-2.973,3.147-2.831,8.107,0.316,11.079l12.822,12.112  c1.515,1.43,3.449,2.14,5.38,2.14c2.08,0,4.158-0.823,5.698-2.456c2.973-3.147,2.831-8.107-0.316-11.079L308.092,404.675z"/>
<path d="M204.042,404.496l-12.866,12.066c-3.157,2.961-3.316,7.92-0.355,11.078c1.543,1.645,3.628,2.475,5.719,2.475  c1.921,0,3.847-0.702,5.359-2.12l12.866-12.066c3.157-2.961,3.315-7.92,0.355-11.078C212.158,401.694,207.2,401.533,204.042,404.496  z"/>
<path d="M145.58,179.976c-12.869,0-23.339,10.47-23.339,23.339c0,12.869,10.47,23.339,23.339,23.339s23.339-10.47,23.339-23.339  C168.919,190.446,158.45,179.976,145.58,179.976z M145.58,210.981c-4.227,0-7.665-3.439-7.665-7.665s3.439-7.665,7.665-7.665  s7.665,3.439,7.665,7.665S149.807,210.981,145.58,210.981z"/>
<path d="M195.878,203.315c0,12.869,10.47,23.339,23.339,23.339c12.869,0,23.339-10.47,23.339-23.339  c0-12.869-10.47-23.339-23.339-23.339C206.348,179.976,195.878,190.445,195.878,203.315z M226.882,203.315  c0,4.227-3.439,7.665-7.665,7.665s-7.665-3.439-7.665-7.665s3.439-7.665,7.665-7.665S226.882,199.089,226.882,203.315z"/>
<path d="M269.515,203.315c0,12.869,10.47,23.339,23.339,23.339c12.869,0,23.339-10.47,23.339-23.339  c0-12.869-10.47-23.339-23.339-23.339C279.985,179.976,269.515,190.445,269.515,203.315z M300.519,203.315  c0,4.227-3.439,7.665-7.665,7.665c-4.227,0-7.665-3.439-7.665-7.665s3.439-7.665,7.665-7.665  C297.08,195.65,300.519,199.089,300.519,203.315z"/>
<path d="M343.15,203.315c0,12.869,10.47,23.339,23.339,23.339s23.339-10.47,23.339-23.339c0-12.869-10.47-23.339-23.339-23.339  S343.15,190.445,343.15,203.315z M374.155,203.315c0,4.227-3.439,7.665-7.665,7.665c-4.227,0-7.665-3.439-7.665-7.665  s3.439-7.665,7.665-7.665C370.716,195.65,374.155,199.089,374.155,203.315z"/>
<g>
</g>
<g>
</g>
<g>
</g>
<g>
</g>
<g>
</g>
<g>
</g>
<g>
</g>
<g>
</g>
<g>
</g>
<g>
</g>
<g>
</g>
<g>
</g>
<g>
</g>
<g>
</g>
<g>
</g>
</svg>
