<svg xmlns="http://www.w3.org/2000/svg" width="128" height="128" viewBox="0 0 128 128">
  <title>GHOST</title>
  <g>
    <path d="M108.346,52.333a5.624,5.624,0,0,0-7.534-2.552l-7.145,3.528V44.7A25.188,25.188,0,0,0,68.479,19.514h0A25.188,25.188,0,0,0,43.291,44.7v8.591l-7.109-3.511A5.625,5.625,0,1,0,31.2,59.868l12.091,5.971V92.37c2.024,1.045,2.486,4.235,5.271,4.235,3.33,0,3.33-4.57,6.66-4.57s3.329,4.57,6.658,4.57,3.329-4.57,6.658-4.57,3.329,4.57,6.658,4.57,3.329-4.57,6.658-4.57,3.33,4.57,6.66,4.57c2.732,0,3.226-3.071,5.153-4.177V65.857l12.127-5.989A5.626,5.626,0,0,0,108.346,52.333Z" fill="#62dff4"/>
    <circle cx="78.131" cy="42.805" r="3.771" fill="#254b8e"/>
    <ellipse cx="68.497" cy="63.504" rx="5.911" ry="8.821" fill="#254b8e"/>
    <circle cx="58.863" cy="42.805" r="3.771" fill="#254b8e"/>
  </g>
</svg>
