<svg id="Layer_1" data-name="Layer 1" xmlns="http://www.w3.org/2000/svg" viewBox="0 0 441.61 667.57"><defs><style>.cls-1{fill:#ee534f;}.cls-2{fill:#ffd54f;}.cls-3{fill:#fea001;}.cls-4{fill:#0289cc;}.cls-5{fill:#029ae6;}.cls-6{isolation:isolate;opacity:0.1;}</style></defs><path class="cls-1" d="M113.44,252.51s-87,43.61-68.07,141.9c1.77,9.15,14.48,10.41,18,1.77,8.54-21,24.55-46.8,53.18-54.78C167.42,327.21,113.44,252.51,113.44,252.51Z" transform="translate(-35.17 83.05)"/><path class="cls-1" d="M398.56,252.51s87,43.61,68.06,141.9c-1.76,9.15-14.47,10.41-18,1.77-8.53-21-24.55-46.8-53.17-54.78C344.58,327.21,398.56,252.51,398.56,252.51Z" transform="translate(-35.17 83.05)"/><path class="cls-2" d="M187.48,402.88C130.24,532.75,256,577,256,577s125.76-44.22,68.52-174.09L256,373.05Z" transform="translate(-35.17 83.05)"/><path class="cls-3" d="M256,531c-12.12-10-28.92-27.92-37-54.85-6.85-22.75-6.56-50.13.85-81.59L256,372.4l36.16,22.15c7.48,31.75,7.71,59.36.66,82.26C284.65,503.34,268,521.08,256,531Z" transform="translate(-35.17 83.05)"/><path class="cls-4" d="M331.31,337.21c2.77,33.85-6.79,65.67-6.79,65.67A461.13,461.13,0,0,1,256,407.59a461,461,0,0,1-68.52-4.71s-9.56-31.82-6.8-65.67Z" transform="translate(-35.17 83.05)"/><path class="cls-5" d="M360.44,35.12l-.1-.23L256-9.89,151.65,34.89l-.1.23c-27,62-45.87,158-35,306.28,0,0,31.41,31.65,139.47,31.65S395.47,341.4,395.47,341.4C406.32,193.16,387.47,97.13,360.44,35.12Z" transform="translate(-35.17 83.05)"/><path class="cls-1" d="M256,55.82c38.45,0,74.27-7.69,104.34-20.93C318.11-61.83,256-75.59,256-75.59S193.89-61.83,151.65,34.89C181.72,48.13,217.54,55.82,256,55.82Z" transform="translate(-35.17 83.05)"/><path class="cls-6" d="M304.36,12.48l-.11-.27c-17-39-36.85-66.34-55.45-85.44a56.12,56.12,0,0,1,7.2-2.36S318.11-61.83,360.34,34.89l.1.23c27,62,45.88,158,35,306.28,0,0-12.82,12.91-50.25,22.24C357.19,194,335.44,83.81,304.36,12.48Z" transform="translate(-35.17 83.05)"/><circle class="cls-2" cx="255.99" cy="165.16" r="68.53" transform="translate(-76.97 312.43) rotate(-45)"/><circle class="cls-3" cx="220.82" cy="248.2" r="31.27"/><path class="cls-1" d="M256,466.23c40.86-62.59,45.58-194.67,0-194.67S215.13,403.64,256,466.23Z" transform="translate(-35.17 83.05)"/><path d="M309.77,219A76,76,0,1,0,256,241.24,75.55,75.55,0,0,0,309.77,219ZM195,165.2a61,61,0,1,1,61,61A60.6,60.6,0,0,1,195,165.2Z" transform="translate(-35.17 83.05)"/><path d="M283.42,192.62A38.77,38.77,0,1,0,256,204,38.54,38.54,0,0,0,283.42,192.62ZM232.24,165.2A23.77,23.77,0,1,1,256,189,23.57,23.57,0,0,1,232.24,165.2Z" transform="translate(-35.17 83.05)"/><path d="M144.76,32s0,0,0,0l-.07.16C125.6,76,113.41,129.81,108.47,192.23a7.5,7.5,0,0,0,6.89,8.07,7.6,7.6,0,0,0,8.07-6.89C128,135.8,138.82,85.86,155.65,44.75a250,250,0,0,0,36.24,11.36A7.5,7.5,0,1,0,195.3,41.5a279.82,279.82,0,0,1-33-10.29l-.61-.23C182-12.57,206.23-37,223.35-50,239-61.83,251.65-66.42,256-67.76c4.37,1.35,17,5.94,32.65,17.8C305.77-37,330-12.57,350.33,31q-8.11,3.24-16.46,5.85A255.61,255.61,0,0,1,272,47.88a276.49,276.49,0,0,1-47.36-1.32,7.51,7.51,0,0,0-8.32,6.59,7.63,7.63,0,0,0,6.6,8.32A292.55,292.55,0,0,0,256,63.37a277.28,277.28,0,0,0,82.63-12.31c.94-.29,17.8-6.1,17.72-6.31a378.71,378.71,0,0,1,13.86,40.53,7.51,7.51,0,0,0,14.45-4.08,386.33,386.33,0,0,0-17.3-49l-.1-.23a.08.08,0,0,1,0,0l0,0C324-67.14,260.31-82.27,257.62-82.87a7.38,7.38,0,0,0-3.24,0c-2.69.59-66.34,15.73-109.6,114.8C144.77,31.94,144.77,32,144.76,32Z" transform="translate(-35.17 83.05)"/><path d="M123.18,328.45c-1.56-24.61-2.37-49.27-2.24-73.92q.09-16.07.71-31.39a7.5,7.5,0,0,0-15-.61q-.51,12.54-.67,25.59a156.09,156.09,0,0,0-30.21,23.65C52.19,295.35,26.49,336,38,395.87A16.58,16.58,0,0,0,49.58,408.8a17,17,0,0,0,20.73-9.75c5.78-14.23,13.1-25.84,21.78-34.51a61,61,0,0,1,22.83-14.72c7,5.24,24.73,15.93,59.16,23.22a217.54,217.54,0,0,0,5.47,29.35C162.17,443.1,160.38,480,174.25,512c22.36,51.6,76.95,71.3,79.26,72.11a7.47,7.47,0,0,0,5,0A155.76,155.76,0,0,0,298,561.62a7.5,7.5,0,0,0-9.19-11.86A148.63,148.63,0,0,1,256,569c-10.45-4.35-50.9-23.36-68-63.06-11.79-27.33-10.39-59.17,4.16-94.73.16-.39,26.17,2.72,32.82,3.1l.93.06a224,224,0,0,0,14.69,39.81l.06.12a140.24,140.24,0,0,0,9.09,16.12,7.51,7.51,0,0,0,6.28,3.4,7.7,7.7,0,0,0,6.29-3.4l.06-.1c2.15-3.27,4.1-6.62,6-10.06a215.94,215.94,0,0,0,17.81-45.89h.21c1.77-.11,24.18-1.89,33.55-3.15C339.05,458,335.47,498,309.2,530.08a7.51,7.51,0,0,0,11.11,10.07c.17-.18.34-.36.5-.56a112.7,112.7,0,0,0,25.06-56.75c3.37-24.64-1.16-51.69-13.42-80.43A217,217,0,0,0,337.92,373c34.41-7.29,52.11-18,59.16-23.21,23.65,8.37,37.27,31.13,44.62,49.23a16.48,16.48,0,0,0,12.18,10.16,17.31,17.31,0,0,0,15.53-4.59,16.85,16.85,0,0,0,4.59-8.75c7.87-40.94-1.06-79.21-25.83-110.68A157.08,157.08,0,0,0,406,248.12c-.63-50.38-5.25-96-13.83-136.43a7.5,7.5,0,0,0-14.68,3.13c9,42.44,13.56,91,13.58,144.87,0,.31,0,.63,0,.94q0,23-1.06,46c-.47,7.49-.75,15-1.21,22.5q-.29,4.32-.59,8.65c-2.93,2.19-9.25,6.34-20.07,10.75a198.45,198.45,0,0,1-36.79,10.69c-3.08.6-36.33,4.66-36.35,4.85,1.65-19,1.72-38.64-2.3-57.37s-14.06-42.55-36.7-42.55c-44.54,0-41.59,69.5-39,99.41,0,.17,0,.34,0,.51q-8.27-.69-16.49-1.74c-26.93-3.49-45.26-9.16-56.66-13.8-10.84-4.41-17.17-8.57-20.07-10.75C123.58,334.64,123.37,331.55,123.18,328.45Zm310.75-37c24.2,29,32.72,63.14,25.33,101.58a1.81,1.81,0,0,1-.47,1,2.23,2.23,0,0,1-1.93.5,1.58,1.58,0,0,1-1.26-1.1c-8.41-20.71-24.17-46.77-52.23-57.28,0-.36.05-.71.07-1.07Q405,312,405.67,288.8c.2-7.6.35-15.2.4-22.8A144.55,144.55,0,0,1,433.93,291.46ZM199,377.23c6.39.82,12.8,1.46,19.22,2l.49,0c.94,6.7,2.1,13.33,3.48,19.83l-.56,0q-14.07-.94-28.07-2.81l-.12,0c-1.07-4.35-2.64-11.52-3.88-20.31,3,.48,6.14.91,9.3,1.32Zm33.31-10.53c-2.26-22.54-2.92-47.61,5.07-69.2,3-8,8.55-18.35,18.55-18.38H256c11.92.11,17.65,14.3,20.36,23.84,4.81,17,6,41.4,2.79,68.34a274.36,274.36,0,0,1-6.2,34,224.45,224.45,0,0,1-12,35.8.61.61,0,0,0,0,.12q-2.09,4.74-4.46,9.34l-.45.86-.1-.21a173.33,173.33,0,0,1-7.62-16.77,234.62,234.62,0,0,1-9.23-29.14A270.86,270.86,0,0,1,232.33,366.7Zm90.09,9.19a205.61,205.61,0,0,1-3.88,20.31l-.13,0c-6.18.84-28.52,2.35-28.62,2.84.8-3.81,3.08-17.05,3.48-19.83C297.78,378.88,317.22,376.71,322.42,375.89Zm-266,17.52a1.87,1.87,0,0,1-2.42,1A1.66,1.66,0,0,1,52.75,393c-10.28-53.39,12.62-89.65,33.64-110.66A145.23,145.23,0,0,1,105.93,266q.16,25,1.49,50,.51,9.58,1.15,19.15l.06.95C86.23,344.54,68.17,364.41,56.4,393.41Z" transform="translate(-35.17 83.05)"/></svg>